<mxfile host="app.diagrams.net" modified="2023-09-06T18:45:32.720Z" agent="Mozilla/5.0 (Windows NT 10.0; Win64; x64) AppleWebKit/537.36 (KHTML, like Gecko) Chrome/116.0.0.0 Safari/537.36" etag="2EnuhZTAAIEsbBzbpc7_" version="21.7.2" type="github">
  <diagram name="Страница — 1" id="YU0tO5HvDjDre46A8e69">
    <mxGraphModel dx="2022" dy="658" grid="1" gridSize="10" guides="1" tooltips="1" connect="1" arrows="1" fold="1" page="1" pageScale="1" pageWidth="827" pageHeight="1169" math="0" shadow="0">
      <root>
        <mxCell id="0" />
        <mxCell id="1" parent="0" />
        <mxCell id="evJcEJ3KG3SUG8nfOCRY-1" value="&lt;font size=&quot;3&quot;&gt;Страница&lt;/font&gt;" style="rounded=0;whiteSpace=wrap;html=1;" vertex="1" parent="1">
          <mxGeometry x="300" y="50" width="120" height="60" as="geometry" />
        </mxCell>
        <mxCell id="evJcEJ3KG3SUG8nfOCRY-2" value="" style="endArrow=classic;html=1;rounded=0;exitX=0.5;exitY=1;exitDx=0;exitDy=0;entryX=1;entryY=0;entryDx=0;entryDy=0;" edge="1" parent="1" source="evJcEJ3KG3SUG8nfOCRY-1" target="evJcEJ3KG3SUG8nfOCRY-3">
          <mxGeometry width="50" height="50" relative="1" as="geometry">
            <mxPoint x="390" y="400" as="sourcePoint" />
            <mxPoint x="160" y="160" as="targetPoint" />
          </mxGeometry>
        </mxCell>
        <mxCell id="evJcEJ3KG3SUG8nfOCRY-25" style="edgeStyle=orthogonalEdgeStyle;rounded=0;orthogonalLoop=1;jettySize=auto;html=1;exitX=1;exitY=1;exitDx=0;exitDy=0;entryX=0.25;entryY=0;entryDx=0;entryDy=0;" edge="1" parent="1" source="evJcEJ3KG3SUG8nfOCRY-3" target="evJcEJ3KG3SUG8nfOCRY-9">
          <mxGeometry relative="1" as="geometry" />
        </mxCell>
        <mxCell id="evJcEJ3KG3SUG8nfOCRY-26" style="edgeStyle=orthogonalEdgeStyle;rounded=0;orthogonalLoop=1;jettySize=auto;html=1;exitX=0;exitY=1;exitDx=0;exitDy=0;entryX=0.75;entryY=0;entryDx=0;entryDy=0;" edge="1" parent="1" source="evJcEJ3KG3SUG8nfOCRY-3" target="evJcEJ3KG3SUG8nfOCRY-8">
          <mxGeometry relative="1" as="geometry" />
        </mxCell>
        <mxCell id="evJcEJ3KG3SUG8nfOCRY-3" value="Меню действий" style="rounded=0;whiteSpace=wrap;html=1;" vertex="1" parent="1">
          <mxGeometry x="110" y="120" width="120" height="60" as="geometry" />
        </mxCell>
        <mxCell id="evJcEJ3KG3SUG8nfOCRY-4" value="Окно изменений&lt;br&gt;ХОЛСТ" style="rounded=0;whiteSpace=wrap;html=1;" vertex="1" parent="1">
          <mxGeometry x="580" y="120" width="120" height="60" as="geometry" />
        </mxCell>
        <mxCell id="evJcEJ3KG3SUG8nfOCRY-5" value="" style="endArrow=classic;html=1;rounded=0;exitX=0.5;exitY=1;exitDx=0;exitDy=0;entryX=0;entryY=0;entryDx=0;entryDy=0;" edge="1" parent="1" source="evJcEJ3KG3SUG8nfOCRY-1" target="evJcEJ3KG3SUG8nfOCRY-4">
          <mxGeometry width="50" height="50" relative="1" as="geometry">
            <mxPoint x="390" y="400" as="sourcePoint" />
            <mxPoint x="440" y="350" as="targetPoint" />
          </mxGeometry>
        </mxCell>
        <mxCell id="evJcEJ3KG3SUG8nfOCRY-8" value="Меню общих действий над проектом" style="rounded=0;whiteSpace=wrap;html=1;" vertex="1" parent="1">
          <mxGeometry y="200" width="120" height="60" as="geometry" />
        </mxCell>
        <mxCell id="evJcEJ3KG3SUG8nfOCRY-9" value="меню редактирования проекта" style="rounded=0;whiteSpace=wrap;html=1;" vertex="1" parent="1">
          <mxGeometry x="210" y="200" width="120" height="60" as="geometry" />
        </mxCell>
        <mxCell id="evJcEJ3KG3SUG8nfOCRY-11" value="Картинка" style="rounded=0;whiteSpace=wrap;html=1;" vertex="1" parent="1">
          <mxGeometry x="400" y="200" width="120" height="60" as="geometry" />
        </mxCell>
        <mxCell id="evJcEJ3KG3SUG8nfOCRY-12" value="Текст" style="rounded=0;whiteSpace=wrap;html=1;" vertex="1" parent="1">
          <mxGeometry x="580" y="200" width="120" height="60" as="geometry" />
        </mxCell>
        <mxCell id="evJcEJ3KG3SUG8nfOCRY-13" value="&lt;font style=&quot;font-size: 10px;&quot;&gt;Выбор картинки&lt;br&gt;Выбор области картинки&lt;br&gt;Перемещение картинки&lt;br&gt;Перемещение области по картинке&lt;br&gt;Обрезание картинки по выбранной области&lt;br&gt;Масштабирование картинки&lt;/font&gt;" style="text;html=1;align=center;verticalAlign=middle;resizable=0;points=[];autosize=1;strokeColor=none;fillColor=none;" vertex="1" parent="1">
          <mxGeometry x="345" y="260" width="230" height="100" as="geometry" />
        </mxCell>
        <mxCell id="evJcEJ3KG3SUG8nfOCRY-16" value="Вставка текста&lt;br&gt;Редактирование текста&lt;br&gt;Выбор размера&lt;br&gt;Выбор цвета&lt;br&gt;перемещение текста" style="text;html=1;align=center;verticalAlign=middle;resizable=0;points=[];autosize=1;strokeColor=none;fillColor=none;" vertex="1" parent="1">
          <mxGeometry x="565" y="250" width="150" height="90" as="geometry" />
        </mxCell>
        <mxCell id="evJcEJ3KG3SUG8nfOCRY-17" value="Арт объекты" style="rounded=0;whiteSpace=wrap;html=1;" vertex="1" parent="1">
          <mxGeometry x="770" y="200" width="120" height="60" as="geometry" />
        </mxCell>
        <mxCell id="evJcEJ3KG3SUG8nfOCRY-18" value="Добавление&lt;br&gt;Перемещение&lt;br&gt;изменение" style="text;html=1;align=center;verticalAlign=middle;resizable=0;points=[];autosize=1;strokeColor=none;fillColor=none;" vertex="1" parent="1">
          <mxGeometry x="780" y="260" width="100" height="60" as="geometry" />
        </mxCell>
        <mxCell id="evJcEJ3KG3SUG8nfOCRY-19" value="" style="endArrow=classic;html=1;rounded=0;entryX=0.5;entryY=0;entryDx=0;entryDy=0;exitX=1;exitY=1;exitDx=0;exitDy=0;" edge="1" parent="1" source="evJcEJ3KG3SUG8nfOCRY-4" target="evJcEJ3KG3SUG8nfOCRY-17">
          <mxGeometry width="50" height="50" relative="1" as="geometry">
            <mxPoint x="620" y="190" as="sourcePoint" />
            <mxPoint x="670" y="140" as="targetPoint" />
          </mxGeometry>
        </mxCell>
        <mxCell id="evJcEJ3KG3SUG8nfOCRY-20" value="" style="endArrow=classic;html=1;rounded=0;entryX=0.5;entryY=0;entryDx=0;entryDy=0;exitX=0.5;exitY=1;exitDx=0;exitDy=0;" edge="1" parent="1" source="evJcEJ3KG3SUG8nfOCRY-4" target="evJcEJ3KG3SUG8nfOCRY-12">
          <mxGeometry width="50" height="50" relative="1" as="geometry">
            <mxPoint x="620" y="190" as="sourcePoint" />
            <mxPoint x="670" y="140" as="targetPoint" />
          </mxGeometry>
        </mxCell>
        <mxCell id="evJcEJ3KG3SUG8nfOCRY-21" value="" style="endArrow=classic;html=1;rounded=0;exitX=0;exitY=1;exitDx=0;exitDy=0;entryX=0.5;entryY=0;entryDx=0;entryDy=0;" edge="1" parent="1" source="evJcEJ3KG3SUG8nfOCRY-4" target="evJcEJ3KG3SUG8nfOCRY-11">
          <mxGeometry width="50" height="50" relative="1" as="geometry">
            <mxPoint x="620" y="190" as="sourcePoint" />
            <mxPoint x="670" y="140" as="targetPoint" />
          </mxGeometry>
        </mxCell>
        <mxCell id="evJcEJ3KG3SUG8nfOCRY-23" value="Размер холста&lt;br&gt;обрезка холста&lt;br&gt;Фильтры" style="text;html=1;align=center;verticalAlign=middle;resizable=0;points=[];autosize=1;strokeColor=none;fillColor=none;" vertex="1" parent="1">
          <mxGeometry x="700" y="105" width="110" height="60" as="geometry" />
        </mxCell>
        <mxCell id="evJcEJ3KG3SUG8nfOCRY-28" value="Создать проект&lt;br&gt;Сохранить проект&lt;br&gt;Очистить проект&lt;br&gt;Импорт фотографий&lt;br&gt;Экспорт проекта" style="text;html=1;align=center;verticalAlign=middle;resizable=0;points=[];autosize=1;strokeColor=none;fillColor=none;" vertex="1" parent="1">
          <mxGeometry x="-10" y="260" width="140" height="90" as="geometry" />
        </mxCell>
      </root>
    </mxGraphModel>
  </diagram>
</mxfile>
